<svg version="1.2" xmlns="http://www.w3.org/2000/svg" viewBox="0 0 1920 1144" style="display: block;">
	<title>UI Test-xd</title>
	<defs>
		<clipPath clipPathUnits="userSpaceOnUse" id="cp1">
			<path d="m0 0h1920v1144h-1920z"/>
		</clipPath>
		<clipPath clipPathUnits="userSpaceOnUse" id="cp2">
			<path d="m490 473c-64.15 0-116-51.85-116-116 0-64.15 51.85-116 116-116 64.15 0 116 51.85 116 116 0 64.15-51.85 116-116 116z"/>
		</clipPath>
	</defs>
	<style>
		.s0 { fill: #4b83fc } 
	</style>
	<g id="Web 1920 – 1" clip-path="url(#cp1)">
		<g id="Mask Group 1" clip-path="url(#cp2)" style="opacity: .4">
			<g id="Repeat Grid 1">
				<g id="Layer">
					<path id="Rectangle 1" class="s0" d="m346 227h3v3h-3z"/>
				</g>
				<g id="Layer">
					<path id="Rectangle 2" class="s0" d="m361 227h3v3h-3z"/>
				</g>
				<g id="Layer">
					<path id="Rectangle 3" class="s0" d="m376 227h3v3h-3z"/>
				</g>
				<g id="Layer">
					<path id="Rectangle 4" class="s0" d="m391 227h3v3h-3z"/>
				</g>
				<g id="Layer">
					<path id="Rectangle 5" class="s0" d="m406 227h3v3h-3z"/>
				</g>
				<g id="Layer">
					<path id="Rectangle 6" class="s0" d="m421 227h3v3h-3z"/>
				</g>
				<g id="Layer">
					<path id="Rectangle 7" class="s0" d="m436 227h3v3h-3z"/>
				</g>
				<g id="Layer">
					<path id="Rectangle 8" class="s0" d="m451 227h3v3h-3z"/>
				</g>
				<g id="Layer">
					<path id="Rectangle 9" class="s0" d="m466 227h3v3h-3z"/>
				</g>
				<g id="Layer">
					<path id="Rectangle 10" class="s0" d="m481 227h3v3h-3z"/>
				</g>
				<g id="Layer">
					<path id="Rectangle 11" class="s0" d="m496 227h3v3h-3z"/>
				</g>
				<g id="Layer">
					<path id="Rectangle 12" class="s0" d="m511 227h3v3h-3z"/>
				</g>
				<g id="Layer">
					<path id="Rectangle 13" class="s0" d="m526 227h3v3h-3z"/>
				</g>
				<g id="Layer">
					<path id="Rectangle 14" class="s0" d="m541 227h3v3h-3z"/>
				</g>
				<g id="Layer">
					<path id="Rectangle 15" class="s0" d="m556 227h3v3h-3z"/>
				</g>
				<g id="Layer">
					<path id="Rectangle 16" class="s0" d="m571 227h3v3h-3z"/>
				</g>
				<g id="Layer">
					<path id="Rectangle 17" class="s0" d="m586 227h3v3h-3z"/>
				</g>
				<g id="Layer">
					<path id="Rectangle 18" class="s0" d="m601 227h3v3h-3z"/>
				</g>
				<g id="Layer">
					<path id="Rectangle 19" class="s0" d="m616 227h3v3h-3z"/>
				</g>
				<g id="Layer">
					<path id="Rectangle 20" class="s0" d="m631 227h3v3h-3z"/>
				</g>
				<g id="Layer">
					<path id="Rectangle 21" class="s0" d="m346 242h3v3h-3z"/>
				</g>
				<g id="Layer">
					<path id="Rectangle 22" class="s0" d="m361 242h3v3h-3z"/>
				</g>
				<g id="Layer">
					<path id="Rectangle 23" class="s0" d="m376 242h3v3h-3z"/>
				</g>
				<g id="Layer">
					<path id="Rectangle 24" class="s0" d="m391 242h3v3h-3z"/>
				</g>
				<g id="Layer">
					<path id="Rectangle 25" class="s0" d="m406 242h3v3h-3z"/>
				</g>
				<g id="Layer">
					<path id="Rectangle 26" class="s0" d="m421 242h3v3h-3z"/>
				</g>
				<g id="Layer">
					<path id="Rectangle 27" class="s0" d="m436 242h3v3h-3z"/>
				</g>
				<g id="Layer">
					<path id="Rectangle 28" class="s0" d="m451 242h3v3h-3z"/>
				</g>
				<g id="Layer">
					<path id="Rectangle 29" class="s0" d="m466 242h3v3h-3z"/>
				</g>
				<g id="Layer">
					<path id="Rectangle 30" class="s0" d="m481 242h3v3h-3z"/>
				</g>
				<g id="Layer">
					<path id="Rectangle 31" class="s0" d="m496 242h3v3h-3z"/>
				</g>
				<g id="Layer">
					<path id="Rectangle 32" class="s0" d="m511 242h3v3h-3z"/>
				</g>
				<g id="Layer">
					<path id="Rectangle 33" class="s0" d="m526 242h3v3h-3z"/>
				</g>
				<g id="Layer">
					<path id="Rectangle 34" class="s0" d="m541 242h3v3h-3z"/>
				</g>
				<g id="Layer">
					<path id="Rectangle 35" class="s0" d="m556 242h3v3h-3z"/>
				</g>
				<g id="Layer">
					<path id="Rectangle 36" class="s0" d="m571 242h3v3h-3z"/>
				</g>
				<g id="Layer">
					<path id="Rectangle 37" class="s0" d="m586 242h3v3h-3z"/>
				</g>
				<g id="Layer">
					<path id="Rectangle 38" class="s0" d="m601 242h3v3h-3z"/>
				</g>
				<g id="Layer">
					<path id="Rectangle 39" class="s0" d="m616 242h3v3h-3z"/>
				</g>
				<g id="Layer">
					<path id="Rectangle 40" class="s0" d="m631 242h3v3h-3z"/>
				</g>
				<g id="Layer">
					<path id="Rectangle 41" class="s0" d="m346 257h3v3h-3z"/>
				</g>
				<g id="Layer">
					<path id="Rectangle 42" class="s0" d="m361 257h3v3h-3z"/>
				</g>
				<g id="Layer">
					<path id="Rectangle 43" class="s0" d="m376 257h3v3h-3z"/>
				</g>
				<g id="Layer">
					<path id="Rectangle 44" class="s0" d="m391 257h3v3h-3z"/>
				</g>
				<g id="Layer">
					<path id="Rectangle 45" class="s0" d="m406 257h3v3h-3z"/>
				</g>
				<g id="Layer">
					<path id="Rectangle 46" class="s0" d="m421 257h3v3h-3z"/>
				</g>
				<g id="Layer">
					<path id="Rectangle 47" class="s0" d="m436 257h3v3h-3z"/>
				</g>
				<g id="Layer">
					<path id="Rectangle 48" class="s0" d="m451 257h3v3h-3z"/>
				</g>
				<g id="Layer">
					<path id="Rectangle 49" class="s0" d="m466 257h3v3h-3z"/>
				</g>
				<g id="Layer">
					<path id="Rectangle 50" class="s0" d="m481 257h3v3h-3z"/>
				</g>
				<g id="Layer">
					<path id="Rectangle 51" class="s0" d="m496 257h3v3h-3z"/>
				</g>
				<g id="Layer">
					<path id="Rectangle 52" class="s0" d="m511 257h3v3h-3z"/>
				</g>
				<g id="Layer">
					<path id="Rectangle 53" class="s0" d="m526 257h3v3h-3z"/>
				</g>
				<g id="Layer">
					<path id="Rectangle 54" class="s0" d="m541 257h3v3h-3z"/>
				</g>
				<g id="Layer">
					<path id="Rectangle 55" class="s0" d="m556 257h3v3h-3z"/>
				</g>
				<g id="Layer">
					<path id="Rectangle 56" class="s0" d="m571 257h3v3h-3z"/>
				</g>
				<g id="Layer">
					<path id="Rectangle 57" class="s0" d="m586 257h3v3h-3z"/>
				</g>
				<g id="Layer">
					<path id="Rectangle 58" class="s0" d="m601 257h3v3h-3z"/>
				</g>
				<g id="Layer">
					<path id="Rectangle 59" class="s0" d="m616 257h3v3h-3z"/>
				</g>
				<g id="Layer">
					<path id="Rectangle 60" class="s0" d="m631 257h3v3h-3z"/>
				</g>
				<g id="Layer">
					<path id="Rectangle 61" class="s0" d="m346 272h3v3h-3z"/>
				</g>
				<g id="Layer">
					<path id="Rectangle 62" class="s0" d="m361 272h3v3h-3z"/>
				</g>
				<g id="Layer">
					<path id="Rectangle 63" class="s0" d="m376 272h3v3h-3z"/>
				</g>
				<g id="Layer">
					<path id="Rectangle 64" class="s0" d="m391 272h3v3h-3z"/>
				</g>
				<g id="Layer">
					<path id="Rectangle 65" class="s0" d="m406 272h3v3h-3z"/>
				</g>
				<g id="Layer">
					<path id="Rectangle 66" class="s0" d="m421 272h3v3h-3z"/>
				</g>
				<g id="Layer">
					<path id="Rectangle 67" class="s0" d="m436 272h3v3h-3z"/>
				</g>
				<g id="Layer">
					<path id="Rectangle 68" class="s0" d="m451 272h3v3h-3z"/>
				</g>
				<g id="Layer">
					<path id="Rectangle 69" class="s0" d="m466 272h3v3h-3z"/>
				</g>
				<g id="Layer">
					<path id="Rectangle 70" class="s0" d="m481 272h3v3h-3z"/>
				</g>
				<g id="Layer">
					<path id="Rectangle 71" class="s0" d="m496 272h3v3h-3z"/>
				</g>
				<g id="Layer">
					<path id="Rectangle 72" class="s0" d="m511 272h3v3h-3z"/>
				</g>
				<g id="Layer">
					<path id="Rectangle 73" class="s0" d="m526 272h3v3h-3z"/>
				</g>
				<g id="Layer">
					<path id="Rectangle 74" class="s0" d="m541 272h3v3h-3z"/>
				</g>
				<g id="Layer">
					<path id="Rectangle 75" class="s0" d="m556 272h3v3h-3z"/>
				</g>
				<g id="Layer">
					<path id="Rectangle 76" class="s0" d="m571 272h3v3h-3z"/>
				</g>
				<g id="Layer">
					<path id="Rectangle 77" class="s0" d="m586 272h3v3h-3z"/>
				</g>
				<g id="Layer">
					<path id="Rectangle 78" class="s0" d="m601 272h3v3h-3z"/>
				</g>
				<g id="Layer">
					<path id="Rectangle 79" class="s0" d="m616 272h3v3h-3z"/>
				</g>
				<g id="Layer">
					<path id="Rectangle 80" class="s0" d="m631 272h3v3h-3z"/>
				</g>
				<g id="Layer">
					<path id="Rectangle 81" class="s0" d="m346 287h3v3h-3z"/>
				</g>
				<g id="Layer">
					<path id="Rectangle 82" class="s0" d="m361 287h3v3h-3z"/>
				</g>
				<g id="Layer">
					<path id="Rectangle 83" class="s0" d="m376 287h3v3h-3z"/>
				</g>
				<g id="Layer">
					<path id="Rectangle 84" class="s0" d="m391 287h3v3h-3z"/>
				</g>
				<g id="Layer">
					<path id="Rectangle 85" class="s0" d="m406 287h3v3h-3z"/>
				</g>
				<g id="Layer">
					<path id="Rectangle 86" class="s0" d="m421 287h3v3h-3z"/>
				</g>
				<g id="Layer">
					<path id="Rectangle 87" class="s0" d="m436 287h3v3h-3z"/>
				</g>
				<g id="Layer">
					<path id="Rectangle 88" class="s0" d="m451 287h3v3h-3z"/>
				</g>
				<g id="Layer">
					<path id="Rectangle 89" class="s0" d="m466 287h3v3h-3z"/>
				</g>
				<g id="Layer">
					<path id="Rectangle 90" class="s0" d="m481 287h3v3h-3z"/>
				</g>
				<g id="Layer">
					<path id="Rectangle 91" class="s0" d="m496 287h3v3h-3z"/>
				</g>
				<g id="Layer">
					<path id="Rectangle 92" class="s0" d="m511 287h3v3h-3z"/>
				</g>
				<g id="Layer">
					<path id="Rectangle 93" class="s0" d="m526 287h3v3h-3z"/>
				</g>
				<g id="Layer">
					<path id="Rectangle 94" class="s0" d="m541 287h3v3h-3z"/>
				</g>
				<g id="Layer">
					<path id="Rectangle 95" class="s0" d="m556 287h3v3h-3z"/>
				</g>
				<g id="Layer">
					<path id="Rectangle 96" class="s0" d="m571 287h3v3h-3z"/>
				</g>
				<g id="Layer">
					<path id="Rectangle 97" class="s0" d="m586 287h3v3h-3z"/>
				</g>
				<g id="Layer">
					<path id="Rectangle 98" class="s0" d="m601 287h3v3h-3z"/>
				</g>
				<g id="Layer">
					<path id="Rectangle 99" class="s0" d="m616 287h3v3h-3z"/>
				</g>
				<g id="Layer">
					<path id="Rectangle 100" class="s0" d="m631 287h3v3h-3z"/>
				</g>
				<g id="Layer">
					<path id="Rectangle 101" class="s0" d="m346 302h3v3h-3z"/>
				</g>
				<g id="Layer">
					<path id="Rectangle 102" class="s0" d="m361 302h3v3h-3z"/>
				</g>
				<g id="Layer">
					<path id="Rectangle 103" class="s0" d="m376 302h3v3h-3z"/>
				</g>
				<g id="Layer">
					<path id="Rectangle 104" class="s0" d="m391 302h3v3h-3z"/>
				</g>
				<g id="Layer">
					<path id="Rectangle 105" class="s0" d="m406 302h3v3h-3z"/>
				</g>
				<g id="Layer">
					<path id="Rectangle 106" class="s0" d="m421 302h3v3h-3z"/>
				</g>
				<g id="Layer">
					<path id="Rectangle 107" class="s0" d="m436 302h3v3h-3z"/>
				</g>
				<g id="Layer">
					<path id="Rectangle 108" class="s0" d="m451 302h3v3h-3z"/>
				</g>
				<g id="Layer">
					<path id="Rectangle 109" class="s0" d="m466 302h3v3h-3z"/>
				</g>
				<g id="Layer">
					<path id="Rectangle 110" class="s0" d="m481 302h3v3h-3z"/>
				</g>
				<g id="Layer">
					<path id="Rectangle 111" class="s0" d="m496 302h3v3h-3z"/>
				</g>
				<g id="Layer">
					<path id="Rectangle 112" class="s0" d="m511 302h3v3h-3z"/>
				</g>
				<g id="Layer">
					<path id="Rectangle 113" class="s0" d="m526 302h3v3h-3z"/>
				</g>
				<g id="Layer">
					<path id="Rectangle 114" class="s0" d="m541 302h3v3h-3z"/>
				</g>
				<g id="Layer">
					<path id="Rectangle 115" class="s0" d="m556 302h3v3h-3z"/>
				</g>
				<g id="Layer">
					<path id="Rectangle 116" class="s0" d="m571 302h3v3h-3z"/>
				</g>
				<g id="Layer">
					<path id="Rectangle 117" class="s0" d="m586 302h3v3h-3z"/>
				</g>
				<g id="Layer">
					<path id="Rectangle 118" class="s0" d="m601 302h3v3h-3z"/>
				</g>
				<g id="Layer">
					<path id="Rectangle 119" class="s0" d="m616 302h3v3h-3z"/>
				</g>
				<g id="Layer">
					<path id="Rectangle 120" class="s0" d="m631 302h3v3h-3z"/>
				</g>
				<g id="Layer">
					<path id="Rectangle 121" class="s0" d="m346 317h3v3h-3z"/>
				</g>
				<g id="Layer">
					<path id="Rectangle 122" class="s0" d="m361 317h3v3h-3z"/>
				</g>
				<g id="Layer">
					<path id="Rectangle 123" class="s0" d="m376 317h3v3h-3z"/>
				</g>
				<g id="Layer">
					<path id="Rectangle 124" class="s0" d="m391 317h3v3h-3z"/>
				</g>
				<g id="Layer">
					<path id="Rectangle 125" class="s0" d="m406 317h3v3h-3z"/>
				</g>
				<g id="Layer">
					<path id="Rectangle 126" class="s0" d="m421 317h3v3h-3z"/>
				</g>
				<g id="Layer">
					<path id="Rectangle 127" class="s0" d="m436 317h3v3h-3z"/>
				</g>
				<g id="Layer">
					<path id="Rectangle 128" class="s0" d="m451 317h3v3h-3z"/>
				</g>
				<g id="Layer">
					<path id="Rectangle 129" class="s0" d="m466 317h3v3h-3z"/>
				</g>
				<g id="Layer">
					<path id="Rectangle 130" class="s0" d="m481 317h3v3h-3z"/>
				</g>
				<g id="Layer">
					<path id="Rectangle 131" class="s0" d="m496 317h3v3h-3z"/>
				</g>
				<g id="Layer">
					<path id="Rectangle 132" class="s0" d="m511 317h3v3h-3z"/>
				</g>
				<g id="Layer">
					<path id="Rectangle 133" class="s0" d="m526 317h3v3h-3z"/>
				</g>
				<g id="Layer">
					<path id="Rectangle 134" class="s0" d="m541 317h3v3h-3z"/>
				</g>
				<g id="Layer">
					<path id="Rectangle 135" class="s0" d="m556 317h3v3h-3z"/>
				</g>
				<g id="Layer">
					<path id="Rectangle 136" class="s0" d="m571 317h3v3h-3z"/>
				</g>
				<g id="Layer">
					<path id="Rectangle 137" class="s0" d="m586 317h3v3h-3z"/>
				</g>
				<g id="Layer">
					<path id="Rectangle 138" class="s0" d="m601 317h3v3h-3z"/>
				</g>
				<g id="Layer">
					<path id="Rectangle 139" class="s0" d="m616 317h3v3h-3z"/>
				</g>
				<g id="Layer">
					<path id="Rectangle 140" class="s0" d="m631 317h3v3h-3z"/>
				</g>
				<g id="Layer">
					<path id="Rectangle 141" class="s0" d="m346 332h3v3h-3z"/>
				</g>
				<g id="Layer">
					<path id="Rectangle 142" class="s0" d="m361 332h3v3h-3z"/>
				</g>
				<g id="Layer">
					<path id="Rectangle 143" class="s0" d="m376 332h3v3h-3z"/>
				</g>
				<g id="Layer">
					<path id="Rectangle 144" class="s0" d="m391 332h3v3h-3z"/>
				</g>
				<g id="Layer">
					<path id="Rectangle 145" class="s0" d="m406 332h3v3h-3z"/>
				</g>
				<g id="Layer">
					<path id="Rectangle 146" class="s0" d="m421 332h3v3h-3z"/>
				</g>
				<g id="Layer">
					<path id="Rectangle 147" class="s0" d="m436 332h3v3h-3z"/>
				</g>
				<g id="Layer">
					<path id="Rectangle 148" class="s0" d="m451 332h3v3h-3z"/>
				</g>
				<g id="Layer">
					<path id="Rectangle 149" class="s0" d="m466 332h3v3h-3z"/>
				</g>
				<g id="Layer">
					<path id="Rectangle 150" class="s0" d="m481 332h3v3h-3z"/>
				</g>
				<g id="Layer">
					<path id="Rectangle 151" class="s0" d="m496 332h3v3h-3z"/>
				</g>
				<g id="Layer">
					<path id="Rectangle 152" class="s0" d="m511 332h3v3h-3z"/>
				</g>
				<g id="Layer">
					<path id="Rectangle 153" class="s0" d="m526 332h3v3h-3z"/>
				</g>
				<g id="Layer">
					<path id="Rectangle 154" class="s0" d="m541 332h3v3h-3z"/>
				</g>
				<g id="Layer">
					<path id="Rectangle 155" class="s0" d="m556 332h3v3h-3z"/>
				</g>
				<g id="Layer">
					<path id="Rectangle 156" class="s0" d="m571 332h3v3h-3z"/>
				</g>
				<g id="Layer">
					<path id="Rectangle 157" class="s0" d="m586 332h3v3h-3z"/>
				</g>
				<g id="Layer">
					<path id="Rectangle 158" class="s0" d="m601 332h3v3h-3z"/>
				</g>
				<g id="Layer">
					<path id="Rectangle 159" class="s0" d="m616 332h3v3h-3z"/>
				</g>
				<g id="Layer">
					<path id="Rectangle 160" class="s0" d="m631 332h3v3h-3z"/>
				</g>
				<g id="Layer">
					<path id="Rectangle 161" class="s0" d="m346 347h3v3h-3z"/>
				</g>
				<g id="Layer">
					<path id="Rectangle 162" class="s0" d="m361 347h3v3h-3z"/>
				</g>
				<g id="Layer">
					<path id="Rectangle 163" class="s0" d="m376 347h3v3h-3z"/>
				</g>
				<g id="Layer">
					<path id="Rectangle 164" class="s0" d="m391 347h3v3h-3z"/>
				</g>
				<g id="Layer">
					<path id="Rectangle 165" class="s0" d="m406 347h3v3h-3z"/>
				</g>
				<g id="Layer">
					<path id="Rectangle 166" class="s0" d="m421 347h3v3h-3z"/>
				</g>
				<g id="Layer">
					<path id="Rectangle 167" class="s0" d="m436 347h3v3h-3z"/>
				</g>
				<g id="Layer">
					<path id="Rectangle 168" class="s0" d="m451 347h3v3h-3z"/>
				</g>
				<g id="Layer">
					<path id="Rectangle 169" class="s0" d="m466 347h3v3h-3z"/>
				</g>
				<g id="Layer">
					<path id="Rectangle 170" class="s0" d="m481 347h3v3h-3z"/>
				</g>
				<g id="Layer">
					<path id="Rectangle 171" class="s0" d="m496 347h3v3h-3z"/>
				</g>
				<g id="Layer">
					<path id="Rectangle 172" class="s0" d="m511 347h3v3h-3z"/>
				</g>
				<g id="Layer">
					<path id="Rectangle 173" class="s0" d="m526 347h3v3h-3z"/>
				</g>
				<g id="Layer">
					<path id="Rectangle 174" class="s0" d="m541 347h3v3h-3z"/>
				</g>
				<g id="Layer">
					<path id="Rectangle 175" class="s0" d="m556 347h3v3h-3z"/>
				</g>
				<g id="Layer">
					<path id="Rectangle 176" class="s0" d="m571 347h3v3h-3z"/>
				</g>
				<g id="Layer">
					<path id="Rectangle 177" class="s0" d="m586 347h3v3h-3z"/>
				</g>
				<g id="Layer">
					<path id="Rectangle 178" class="s0" d="m601 347h3v3h-3z"/>
				</g>
				<g id="Layer">
					<path id="Rectangle 179" class="s0" d="m616 347h3v3h-3z"/>
				</g>
				<g id="Layer">
					<path id="Rectangle 180" class="s0" d="m631 347h3v3h-3z"/>
				</g>
				<g id="Layer">
					<path id="Rectangle 181" class="s0" d="m346 362h3v3h-3z"/>
				</g>
				<g id="Layer">
					<path id="Rectangle 182" class="s0" d="m361 362h3v3h-3z"/>
				</g>
				<g id="Layer">
					<path id="Rectangle 183" class="s0" d="m376 362h3v3h-3z"/>
				</g>
				<g id="Layer">
					<path id="Rectangle 184" class="s0" d="m391 362h3v3h-3z"/>
				</g>
				<g id="Layer">
					<path id="Rectangle 185" class="s0" d="m406 362h3v3h-3z"/>
				</g>
				<g id="Layer">
					<path id="Rectangle 186" class="s0" d="m421 362h3v3h-3z"/>
				</g>
				<g id="Layer">
					<path id="Rectangle 187" class="s0" d="m436 362h3v3h-3z"/>
				</g>
				<g id="Layer">
					<path id="Rectangle 188" class="s0" d="m451 362h3v3h-3z"/>
				</g>
				<g id="Layer">
					<path id="Rectangle 189" class="s0" d="m466 362h3v3h-3z"/>
				</g>
				<g id="Layer">
					<path id="Rectangle 190" class="s0" d="m481 362h3v3h-3z"/>
				</g>
				<g id="Layer">
					<path id="Rectangle 191" class="s0" d="m496 362h3v3h-3z"/>
				</g>
				<g id="Layer">
					<path id="Rectangle 192" class="s0" d="m511 362h3v3h-3z"/>
				</g>
				<g id="Layer">
					<path id="Rectangle 193" class="s0" d="m526 362h3v3h-3z"/>
				</g>
				<g id="Layer">
					<path id="Rectangle 194" class="s0" d="m541 362h3v3h-3z"/>
				</g>
				<g id="Layer">
					<path id="Rectangle 195" class="s0" d="m556 362h3v3h-3z"/>
				</g>
				<g id="Layer">
					<path id="Rectangle 196" class="s0" d="m571 362h3v3h-3z"/>
				</g>
				<g id="Layer">
					<path id="Rectangle 197" class="s0" d="m586 362h3v3h-3z"/>
				</g>
				<g id="Layer">
					<path id="Rectangle 198" class="s0" d="m601 362h3v3h-3z"/>
				</g>
				<g id="Layer">
					<path id="Rectangle 199" class="s0" d="m616 362h3v3h-3z"/>
				</g>
				<g id="Layer">
					<path id="Rectangle 200" class="s0" d="m631 362h3v3h-3z"/>
				</g>
				<g id="Layer">
					<path id="Rectangle 201" class="s0" d="m346 377h3v3h-3z"/>
				</g>
				<g id="Layer">
					<path id="Rectangle 202" class="s0" d="m361 377h3v3h-3z"/>
				</g>
				<g id="Layer">
					<path id="Rectangle 203" class="s0" d="m376 377h3v3h-3z"/>
				</g>
				<g id="Layer">
					<path id="Rectangle 204" class="s0" d="m391 377h3v3h-3z"/>
				</g>
				<g id="Layer">
					<path id="Rectangle 205" class="s0" d="m406 377h3v3h-3z"/>
				</g>
				<g id="Layer">
					<path id="Rectangle 206" class="s0" d="m421 377h3v3h-3z"/>
				</g>
				<g id="Layer">
					<path id="Rectangle 207" class="s0" d="m436 377h3v3h-3z"/>
				</g>
				<g id="Layer">
					<path id="Rectangle 208" class="s0" d="m451 377h3v3h-3z"/>
				</g>
				<g id="Layer">
					<path id="Rectangle 209" class="s0" d="m466 377h3v3h-3z"/>
				</g>
				<g id="Layer">
					<path id="Rectangle 210" class="s0" d="m481 377h3v3h-3z"/>
				</g>
				<g id="Layer">
					<path id="Rectangle 211" class="s0" d="m496 377h3v3h-3z"/>
				</g>
				<g id="Layer">
					<path id="Rectangle 212" class="s0" d="m511 377h3v3h-3z"/>
				</g>
				<g id="Layer">
					<path id="Rectangle 213" class="s0" d="m526 377h3v3h-3z"/>
				</g>
				<g id="Layer">
					<path id="Rectangle 214" class="s0" d="m541 377h3v3h-3z"/>
				</g>
				<g id="Layer">
					<path id="Rectangle 215" class="s0" d="m556 377h3v3h-3z"/>
				</g>
				<g id="Layer">
					<path id="Rectangle 216" class="s0" d="m571 377h3v3h-3z"/>
				</g>
				<g id="Layer">
					<path id="Rectangle 217" class="s0" d="m586 377h3v3h-3z"/>
				</g>
				<g id="Layer">
					<path id="Rectangle 218" class="s0" d="m601 377h3v3h-3z"/>
				</g>
				<g id="Layer">
					<path id="Rectangle 219" class="s0" d="m616 377h3v3h-3z"/>
				</g>
				<g id="Layer">
					<path id="Rectangle 220" class="s0" d="m631 377h3v3h-3z"/>
				</g>
				<g id="Layer">
					<path id="Rectangle 221" class="s0" d="m346 392h3v3h-3z"/>
				</g>
				<g id="Layer">
					<path id="Rectangle 222" class="s0" d="m361 392h3v3h-3z"/>
				</g>
				<g id="Layer">
					<path id="Rectangle 223" class="s0" d="m376 392h3v3h-3z"/>
				</g>
				<g id="Layer">
					<path id="Rectangle 224" class="s0" d="m391 392h3v3h-3z"/>
				</g>
				<g id="Layer">
					<path id="Rectangle 225" class="s0" d="m406 392h3v3h-3z"/>
				</g>
				<g id="Layer">
					<path id="Rectangle 226" class="s0" d="m421 392h3v3h-3z"/>
				</g>
				<g id="Layer">
					<path id="Rectangle 227" class="s0" d="m436 392h3v3h-3z"/>
				</g>
				<g id="Layer">
					<path id="Rectangle 228" class="s0" d="m451 392h3v3h-3z"/>
				</g>
				<g id="Layer">
					<path id="Rectangle 229" class="s0" d="m466 392h3v3h-3z"/>
				</g>
				<g id="Layer">
					<path id="Rectangle 230" class="s0" d="m481 392h3v3h-3z"/>
				</g>
				<g id="Layer">
					<path id="Rectangle 231" class="s0" d="m496 392h3v3h-3z"/>
				</g>
				<g id="Layer">
					<path id="Rectangle 232" class="s0" d="m511 392h3v3h-3z"/>
				</g>
				<g id="Layer">
					<path id="Rectangle 233" class="s0" d="m526 392h3v3h-3z"/>
				</g>
				<g id="Layer">
					<path id="Rectangle 234" class="s0" d="m541 392h3v3h-3z"/>
				</g>
				<g id="Layer">
					<path id="Rectangle 235" class="s0" d="m556 392h3v3h-3z"/>
				</g>
				<g id="Layer">
					<path id="Rectangle 236" class="s0" d="m571 392h3v3h-3z"/>
				</g>
				<g id="Layer">
					<path id="Rectangle 237" class="s0" d="m586 392h3v3h-3z"/>
				</g>
				<g id="Layer">
					<path id="Rectangle 238" class="s0" d="m601 392h3v3h-3z"/>
				</g>
				<g id="Layer">
					<path id="Rectangle 239" class="s0" d="m616 392h3v3h-3z"/>
				</g>
				<g id="Layer">
					<path id="Rectangle 240" class="s0" d="m631 392h3v3h-3z"/>
				</g>
				<g id="Layer">
					<path id="Rectangle 241" class="s0" d="m346 407h3v3h-3z"/>
				</g>
				<g id="Layer">
					<path id="Rectangle 242" class="s0" d="m361 407h3v3h-3z"/>
				</g>
				<g id="Layer">
					<path id="Rectangle 243" class="s0" d="m376 407h3v3h-3z"/>
				</g>
				<g id="Layer">
					<path id="Rectangle 244" class="s0" d="m391 407h3v3h-3z"/>
				</g>
				<g id="Layer">
					<path id="Rectangle 245" class="s0" d="m406 407h3v3h-3z"/>
				</g>
				<g id="Layer">
					<path id="Rectangle 246" class="s0" d="m421 407h3v3h-3z"/>
				</g>
				<g id="Layer">
					<path id="Rectangle 247" class="s0" d="m436 407h3v3h-3z"/>
				</g>
				<g id="Layer">
					<path id="Rectangle 248" class="s0" d="m451 407h3v3h-3z"/>
				</g>
				<g id="Layer">
					<path id="Rectangle 249" class="s0" d="m466 407h3v3h-3z"/>
				</g>
				<g id="Layer">
					<path id="Rectangle 250" class="s0" d="m481 407h3v3h-3z"/>
				</g>
				<g id="Layer">
					<path id="Rectangle 251" class="s0" d="m496 407h3v3h-3z"/>
				</g>
				<g id="Layer">
					<path id="Rectangle 252" class="s0" d="m511 407h3v3h-3z"/>
				</g>
				<g id="Layer">
					<path id="Rectangle 253" class="s0" d="m526 407h3v3h-3z"/>
				</g>
				<g id="Layer">
					<path id="Rectangle 254" class="s0" d="m541 407h3v3h-3z"/>
				</g>
				<g id="Layer">
					<path id="Rectangle 255" class="s0" d="m556 407h3v3h-3z"/>
				</g>
				<g id="Layer">
					<path id="Rectangle 256" class="s0" d="m571 407h3v3h-3z"/>
				</g>
				<g id="Layer">
					<path id="Rectangle 257" class="s0" d="m586 407h3v3h-3z"/>
				</g>
				<g id="Layer">
					<path id="Rectangle 258" class="s0" d="m601 407h3v3h-3z"/>
				</g>
				<g id="Layer">
					<path id="Rectangle 259" class="s0" d="m616 407h3v3h-3z"/>
				</g>
				<g id="Layer">
					<path id="Rectangle 260" class="s0" d="m631 407h3v3h-3z"/>
				</g>
				<g id="Layer">
					<path id="Rectangle 261" class="s0" d="m346 422h3v3h-3z"/>
				</g>
				<g id="Layer">
					<path id="Rectangle 262" class="s0" d="m361 422h3v3h-3z"/>
				</g>
				<g id="Layer">
					<path id="Rectangle 263" class="s0" d="m376 422h3v3h-3z"/>
				</g>
				<g id="Layer">
					<path id="Rectangle 264" class="s0" d="m391 422h3v3h-3z"/>
				</g>
				<g id="Layer">
					<path id="Rectangle 265" class="s0" d="m406 422h3v3h-3z"/>
				</g>
				<g id="Layer">
					<path id="Rectangle 266" class="s0" d="m421 422h3v3h-3z"/>
				</g>
				<g id="Layer">
					<path id="Rectangle 267" class="s0" d="m436 422h3v3h-3z"/>
				</g>
				<g id="Layer">
					<path id="Rectangle 268" class="s0" d="m451 422h3v3h-3z"/>
				</g>
				<g id="Layer">
					<path id="Rectangle 269" class="s0" d="m466 422h3v3h-3z"/>
				</g>
				<g id="Layer">
					<path id="Rectangle 270" class="s0" d="m481 422h3v3h-3z"/>
				</g>
				<g id="Layer">
					<path id="Rectangle 271" class="s0" d="m496 422h3v3h-3z"/>
				</g>
				<g id="Layer">
					<path id="Rectangle 272" class="s0" d="m511 422h3v3h-3z"/>
				</g>
				<g id="Layer">
					<path id="Rectangle 273" class="s0" d="m526 422h3v3h-3z"/>
				</g>
				<g id="Layer">
					<path id="Rectangle 274" class="s0" d="m541 422h3v3h-3z"/>
				</g>
				<g id="Layer">
					<path id="Rectangle 275" class="s0" d="m556 422h3v3h-3z"/>
				</g>
				<g id="Layer">
					<path id="Rectangle 276" class="s0" d="m571 422h3v3h-3z"/>
				</g>
				<g id="Layer">
					<path id="Rectangle 277" class="s0" d="m586 422h3v3h-3z"/>
				</g>
				<g id="Layer">
					<path id="Rectangle 278" class="s0" d="m601 422h3v3h-3z"/>
				</g>
				<g id="Layer">
					<path id="Rectangle 279" class="s0" d="m616 422h3v3h-3z"/>
				</g>
				<g id="Layer">
					<path id="Rectangle 280" class="s0" d="m631 422h3v3h-3z"/>
				</g>
				<g id="Layer">
					<path id="Rectangle 281" class="s0" d="m346 437h3v3h-3z"/>
				</g>
				<g id="Layer">
					<path id="Rectangle 282" class="s0" d="m361 437h3v3h-3z"/>
				</g>
				<g id="Layer">
					<path id="Rectangle 283" class="s0" d="m376 437h3v3h-3z"/>
				</g>
				<g id="Layer">
					<path id="Rectangle 284" class="s0" d="m391 437h3v3h-3z"/>
				</g>
				<g id="Layer">
					<path id="Rectangle 285" class="s0" d="m406 437h3v3h-3z"/>
				</g>
				<g id="Layer">
					<path id="Rectangle 286" class="s0" d="m421 437h3v3h-3z"/>
				</g>
				<g id="Layer">
					<path id="Rectangle 287" class="s0" d="m436 437h3v3h-3z"/>
				</g>
				<g id="Layer">
					<path id="Rectangle 288" class="s0" d="m451 437h3v3h-3z"/>
				</g>
				<g id="Layer">
					<path id="Rectangle 289" class="s0" d="m466 437h3v3h-3z"/>
				</g>
				<g id="Layer">
					<path id="Rectangle 290" class="s0" d="m481 437h3v3h-3z"/>
				</g>
				<g id="Layer">
					<path id="Rectangle 291" class="s0" d="m496 437h3v3h-3z"/>
				</g>
				<g id="Layer">
					<path id="Rectangle 292" class="s0" d="m511 437h3v3h-3z"/>
				</g>
				<g id="Layer">
					<path id="Rectangle 293" class="s0" d="m526 437h3v3h-3z"/>
				</g>
				<g id="Layer">
					<path id="Rectangle 294" class="s0" d="m541 437h3v3h-3z"/>
				</g>
				<g id="Layer">
					<path id="Rectangle 295" class="s0" d="m556 437h3v3h-3z"/>
				</g>
				<g id="Layer">
					<path id="Rectangle 296" class="s0" d="m571 437h3v3h-3z"/>
				</g>
				<g id="Layer">
					<path id="Rectangle 297" class="s0" d="m586 437h3v3h-3z"/>
				</g>
				<g id="Layer">
					<path id="Rectangle 298" class="s0" d="m601 437h3v3h-3z"/>
				</g>
				<g id="Layer">
					<path id="Rectangle 299" class="s0" d="m616 437h3v3h-3z"/>
				</g>
				<g id="Layer">
					<path id="Rectangle 300" class="s0" d="m631 437h3v3h-3z"/>
				</g>
				<g id="Layer">
					<path id="Rectangle 301" class="s0" d="m346 452h3v3h-3z"/>
				</g>
				<g id="Layer">
					<path id="Rectangle 302" class="s0" d="m361 452h3v3h-3z"/>
				</g>
				<g id="Layer">
					<path id="Rectangle 303" class="s0" d="m376 452h3v3h-3z"/>
				</g>
				<g id="Layer">
					<path id="Rectangle 304" class="s0" d="m391 452h3v3h-3z"/>
				</g>
				<g id="Layer">
					<path id="Rectangle 305" class="s0" d="m406 452h3v3h-3z"/>
				</g>
				<g id="Layer">
					<path id="Rectangle 306" class="s0" d="m421 452h3v3h-3z"/>
				</g>
				<g id="Layer">
					<path id="Rectangle 307" class="s0" d="m436 452h3v3h-3z"/>
				</g>
				<g id="Layer">
					<path id="Rectangle 308" class="s0" d="m451 452h3v3h-3z"/>
				</g>
				<g id="Layer">
					<path id="Rectangle 309" class="s0" d="m466 452h3v3h-3z"/>
				</g>
				<g id="Layer">
					<path id="Rectangle 310" class="s0" d="m481 452h3v3h-3z"/>
				</g>
				<g id="Layer">
					<path id="Rectangle 311" class="s0" d="m496 452h3v3h-3z"/>
				</g>
				<g id="Layer">
					<path id="Rectangle 312" class="s0" d="m511 452h3v3h-3z"/>
				</g>
				<g id="Layer">
					<path id="Rectangle 313" class="s0" d="m526 452h3v3h-3z"/>
				</g>
				<g id="Layer">
					<path id="Rectangle 314" class="s0" d="m541 452h3v3h-3z"/>
				</g>
				<g id="Layer">
					<path id="Rectangle 315" class="s0" d="m556 452h3v3h-3z"/>
				</g>
				<g id="Layer">
					<path id="Rectangle 316" class="s0" d="m571 452h3v3h-3z"/>
				</g>
				<g id="Layer">
					<path id="Rectangle 317" class="s0" d="m586 452h3v3h-3z"/>
				</g>
				<g id="Layer">
					<path id="Rectangle 318" class="s0" d="m601 452h3v3h-3z"/>
				</g>
				<g id="Layer">
					<path id="Rectangle 319" class="s0" d="m616 452h3v3h-3z"/>
				</g>
				<g id="Layer">
					<path id="Rectangle 320" class="s0" d="m631 452h3v3h-3z"/>
				</g>
				<g id="Layer">
					<path id="Rectangle 321" class="s0" d="m346 467h3v3h-3z"/>
				</g>
				<g id="Layer">
					<path id="Rectangle 322" class="s0" d="m361 467h3v3h-3z"/>
				</g>
				<g id="Layer">
					<path id="Rectangle 323" class="s0" d="m376 467h3v3h-3z"/>
				</g>
				<g id="Layer">
					<path id="Rectangle 324" class="s0" d="m391 467h3v3h-3z"/>
				</g>
				<g id="Layer">
					<path id="Rectangle 325" class="s0" d="m406 467h3v3h-3z"/>
				</g>
				<g id="Layer">
					<path id="Rectangle 326" class="s0" d="m421 467h3v3h-3z"/>
				</g>
				<g id="Layer">
					<path id="Rectangle 327" class="s0" d="m436 467h3v3h-3z"/>
				</g>
				<g id="Layer">
					<path id="Rectangle 328" class="s0" d="m451 467h3v3h-3z"/>
				</g>
				<g id="Layer">
					<path id="Rectangle 329" class="s0" d="m466 467h3v3h-3z"/>
				</g>
				<g id="Layer">
					<path id="Rectangle 330" class="s0" d="m481 467h3v3h-3z"/>
				</g>
				<g id="Layer">
					<path id="Rectangle 331" class="s0" d="m496 467h3v3h-3z"/>
				</g>
				<g id="Layer">
					<path id="Rectangle 332" class="s0" d="m511 467h3v3h-3z"/>
				</g>
				<g id="Layer">
					<path id="Rectangle 333" class="s0" d="m526 467h3v3h-3z"/>
				</g>
				<g id="Layer">
					<path id="Rectangle 334" class="s0" d="m541 467h3v3h-3z"/>
				</g>
				<g id="Layer">
					<path id="Rectangle 335" class="s0" d="m556 467h3v3h-3z"/>
				</g>
				<g id="Layer">
					<path id="Rectangle 336" class="s0" d="m571 467h3v3h-3z"/>
				</g>
				<g id="Layer">
					<path id="Rectangle 337" class="s0" d="m586 467h3v3h-3z"/>
				</g>
				<g id="Layer">
					<path id="Rectangle 338" class="s0" d="m601 467h3v3h-3z"/>
				</g>
				<g id="Layer">
					<path id="Rectangle 339" class="s0" d="m616 467h3v3h-3z"/>
				</g>
				<g id="Layer">
					<path id="Rectangle 340" class="s0" d="m631 467h3v3h-3z"/>
				</g>
				<g id="Layer">
					<path id="Rectangle 341" class="s0" d="m346 482h3v3h-3z"/>
				</g>
				<g id="Layer">
					<path id="Rectangle 342" class="s0" d="m361 482h3v3h-3z"/>
				</g>
				<g id="Layer">
					<path id="Rectangle 343" class="s0" d="m376 482h3v3h-3z"/>
				</g>
				<g id="Layer">
					<path id="Rectangle 344" class="s0" d="m391 482h3v3h-3z"/>
				</g>
				<g id="Layer">
					<path id="Rectangle 345" class="s0" d="m406 482h3v3h-3z"/>
				</g>
				<g id="Layer">
					<path id="Rectangle 346" class="s0" d="m421 482h3v3h-3z"/>
				</g>
				<g id="Layer">
					<path id="Rectangle 347" class="s0" d="m436 482h3v3h-3z"/>
				</g>
				<g id="Layer">
					<path id="Rectangle 348" class="s0" d="m451 482h3v3h-3z"/>
				</g>
				<g id="Layer">
					<path id="Rectangle 349" class="s0" d="m466 482h3v3h-3z"/>
				</g>
				<g id="Layer">
					<path id="Rectangle 350" class="s0" d="m481 482h3v3h-3z"/>
				</g>
				<g id="Layer">
					<path id="Rectangle 351" class="s0" d="m496 482h3v3h-3z"/>
				</g>
				<g id="Layer">
					<path id="Rectangle 352" class="s0" d="m511 482h3v3h-3z"/>
				</g>
				<g id="Layer">
					<path id="Rectangle 353" class="s0" d="m526 482h3v3h-3z"/>
				</g>
				<g id="Layer">
					<path id="Rectangle 354" class="s0" d="m541 482h3v3h-3z"/>
				</g>
				<g id="Layer">
					<path id="Rectangle 355" class="s0" d="m556 482h3v3h-3z"/>
				</g>
				<g id="Layer">
					<path id="Rectangle 356" class="s0" d="m571 482h3v3h-3z"/>
				</g>
				<g id="Layer">
					<path id="Rectangle 357" class="s0" d="m586 482h3v3h-3z"/>
				</g>
				<g id="Layer">
					<path id="Rectangle 358" class="s0" d="m601 482h3v3h-3z"/>
				</g>
				<g id="Layer">
					<path id="Rectangle 359" class="s0" d="m616 482h3v3h-3z"/>
				</g>
				<g id="Layer">
					<path id="Rectangle 360" class="s0" d="m631 482h3v3h-3z"/>
				</g>
			</g>
		</g>
	</g>
</svg>